<?xml version="1.0" standalone="no"?>
<!DOCTYPE svg PUBLIC "-//W3C//DTD SVG 20010904//EN"
 "http://www.w3.org/TR/2001/REC-SVG-20010904/DTD/svg10.dtd">
<svg version="1.0" xmlns="http://www.w3.org/2000/svg"
 width="208.000000pt" height="208.000000pt" viewBox="0 0 208.000000 208.000000"
 preserveAspectRatio="xMidYMid meet">
<metadata>
Created by potrace 1.14, written by Peter Selinger 2001-2017
</metadata>
<g transform="translate(0.000000,208.000000) scale(0.100000,-0.100000)"
fill="#000000" stroke="none">
<path d="M934 1790 c-11 -4 -33 -22 -47 -40 -28 -33 -28 -32 -29 -202 l0 -88
-52 -1 c-58 -1 -258 -6 -516 -13 -97 -3 -184 -8 -194 -12 -10 -4 -22 -18 -27
-32 -5 -14 -9 -151 -9 -307 1 -265 2 -284 20 -300 20 -18 45 -20 310 -29 63
-2 126 -8 140 -14 14 -5 67 -50 118 -100 102 -99 156 -129 215 -118 30 6 87
51 79 62 -2 2 -12 33 -22 69 -18 64 -18 67 -1 82 74 62 71 56 71 143 l0 80 53
1 c28 0 124 2 212 4 184 4 173 7 278 -93 83 -81 109 -99 172 -117 89 -25 121
-26 146 -6 23 18 23 20 10 77 -28 123 -28 129 18 155 23 12 42 30 42 38 7 76
5 635 -3 664 -14 56 -14 56 -353 72 -60 3 -137 7 -170 10 -54 4 -144 9 -370
20 -38 1 -79 -1 -91 -5z"/>
<path d="M2040 526 c0 -8 4 -17 9 -20 5 -4 7 3 4 14 -6 23 -13 26 -13 6z"/>
</g>
</svg>
